<svg width="321" height="58" viewBox="0 0 321 58" fill="none" xmlns="http://www.w3.org/2000/svg">
<g clip-path="url(#clip0_540_1123)">
<rect x="0.5" y="0.5" width="320" height="57" rx="4.5" fill="#F9F9F9"/>
<rect x="0.5" y="0.5" width="320" height="57" rx="4.5" stroke="#E6E6E6"/>
<path d="M25.208 34H23.528V30.136L19.888 24.214H21.694L24.368 28.666L27.042 24.214H28.848L25.208 30.136V34ZM30.9723 32.04C31.4203 32.488 31.985 32.712 32.6663 32.712C33.3477 32.712 33.9077 32.488 34.3463 32.04C34.7943 31.5827 35.0183 30.9947 35.0183 30.276C35.0183 29.5573 34.7943 28.974 34.3463 28.526C33.9077 28.0687 33.3477 27.84 32.6663 27.84C31.985 27.84 31.4203 28.0687 30.9723 28.526C30.5337 28.974 30.3143 29.5573 30.3143 30.276C30.3143 30.9947 30.5337 31.5827 30.9723 32.04ZM35.4663 33.006C34.7197 33.7433 33.7863 34.112 32.6663 34.112C31.5463 34.112 30.613 33.7433 29.8663 33.006C29.1197 32.2593 28.7463 31.3493 28.7463 30.276C28.7463 29.2027 29.1197 28.2973 29.8663 27.56C30.613 26.8133 31.5463 26.44 32.6663 26.44C33.7863 26.44 34.7197 26.8133 35.4663 27.56C36.213 28.2973 36.5863 29.2027 36.5863 30.276C36.5863 31.3493 36.213 32.2593 35.4663 33.006ZM43.7772 30.584V26.552H45.3452V34H43.7772V32.642C43.5252 33.0993 43.1752 33.4587 42.7272 33.72C42.2885 33.9813 41.8125 34.112 41.2992 34.112C40.4592 34.112 39.7778 33.8553 39.2552 33.342C38.7418 32.8287 38.4852 32.0867 38.4852 31.116V26.552H40.0532V30.64C40.0532 32.012 40.6225 32.698 41.7612 32.698C42.3025 32.698 42.7738 32.5207 43.1752 32.166C43.5765 31.802 43.7772 31.2747 43.7772 30.584ZM51.7259 28.022C50.9513 28.022 50.3679 28.274 49.9759 28.778C49.5839 29.282 49.3879 29.9587 49.3879 30.808V34H47.8199V26.552H49.3879V28.05C49.6399 27.5833 49.9806 27.2007 50.4099 26.902C50.8486 26.6033 51.3106 26.4493 51.7959 26.44L51.8099 28.022C51.7819 28.022 51.7539 28.022 51.7259 28.022ZM64.7242 24.214V25.768H59.5022V28.358H64.1922V29.828H59.5022V32.446H64.8922V34H57.8502V24.214H64.7242ZM68.5543 29.968V34H66.9863V26.552H68.5543V27.91C68.7783 27.4527 69.1143 27.0933 69.5623 26.832C70.0197 26.5707 70.5097 26.44 71.0323 26.44C72.2083 26.44 73.0063 26.9253 73.4263 27.896C74.1637 26.9253 75.083 26.44 76.1843 26.44C77.0243 26.44 77.701 26.6967 78.2143 27.21C78.737 27.7233 78.9983 28.4653 78.9983 29.436V34H77.4303V29.912C77.4303 28.54 76.861 27.854 75.7223 27.854C75.1903 27.854 74.7237 28.0267 74.3223 28.372C73.9303 28.708 73.725 29.2027 73.7063 29.856V34H72.1383V29.912C72.1383 29.2027 72.0123 28.6847 71.7603 28.358C71.5083 28.022 71.1117 27.854 70.5703 27.854C70.029 27.854 69.5577 28.036 69.1563 28.4C68.755 28.7547 68.5543 29.2773 68.5543 29.968ZM87.4118 34H85.9838V33.006C85.3678 33.7433 84.5418 34.112 83.5058 34.112C82.7311 34.112 82.0871 33.8927 81.5738 33.454C81.0698 33.0153 80.8178 32.432 80.8178 31.704C80.8178 30.9667 81.0884 30.416 81.6298 30.052C82.1711 29.688 82.9038 29.506 83.8278 29.506H85.8578V29.226C85.8578 28.2367 85.3071 27.742 84.2058 27.742C83.5151 27.742 82.7964 27.994 82.0498 28.498L81.3498 27.518C82.2551 26.7993 83.2818 26.44 84.4298 26.44C85.3071 26.44 86.0211 26.664 86.5718 27.112C87.1318 27.5507 87.4118 28.246 87.4118 29.198V34ZM85.8438 31.228V30.598H84.0798C82.9504 30.598 82.3858 30.9527 82.3858 31.662C82.3858 32.026 82.5258 32.306 82.8058 32.502C83.0858 32.6887 83.4731 32.782 83.9678 32.782C84.4718 32.782 84.9104 32.642 85.2838 32.362C85.6571 32.082 85.8438 31.704 85.8438 31.228ZM91.3625 34H89.7945V26.552H91.3625V34ZM89.8925 25.068C89.6965 24.872 89.5985 24.6387 89.5985 24.368C89.5985 24.0973 89.6965 23.864 89.8925 23.668C90.0885 23.472 90.3219 23.374 90.5925 23.374C90.8632 23.374 91.0965 23.472 91.2925 23.668C91.4885 23.864 91.5865 24.0973 91.5865 24.368C91.5865 24.6387 91.4885 24.872 91.2925 25.068C91.0965 25.264 90.8632 25.362 90.5925 25.362C90.3219 25.362 90.0885 25.264 89.8925 25.068ZM95.4043 34H93.8363V23.612H95.4043V34Z" fill="#737373"/>
<g clip-path="url(#clip1_540_1123)">
<path d="M204.5 0.5H316C318.485 0.5 320.5 2.51472 320.5 5V53C320.5 55.4853 318.485 57.5 316 57.5H204.5V0.5Z" fill="#23A6F0"/>
<path d="M204.5 0.5H316C318.485 0.5 320.5 2.51472 320.5 5V53C320.5 55.4853 318.485 57.5 316 57.5H204.5V0.5Z" stroke="#E6E6E6"/>
<path d="M231.278 34.084C230.55 34.084 229.85 33.9673 229.178 33.734C228.516 33.4913 228.002 33.1833 227.638 32.81L228.044 32.012C228.39 32.348 228.852 32.6327 229.43 32.866C230.018 33.09 230.634 33.202 231.278 33.202C231.894 33.202 232.394 33.1273 232.776 32.978C233.168 32.8193 233.453 32.6093 233.63 32.348C233.817 32.0867 233.91 31.7973 233.91 31.48C233.91 31.0973 233.798 30.7893 233.574 30.556C233.36 30.3227 233.075 30.1407 232.72 30.01C232.366 29.87 231.974 29.7487 231.544 29.646C231.115 29.5433 230.686 29.436 230.256 29.324C229.827 29.2027 229.43 29.044 229.066 28.848C228.712 28.652 228.422 28.3953 228.198 28.078C227.984 27.7513 227.876 27.3267 227.876 26.804C227.876 26.3187 228.002 25.8753 228.254 25.474C228.516 25.0633 228.912 24.7367 229.444 24.494C229.976 24.242 230.658 24.116 231.488 24.116C232.039 24.116 232.585 24.1953 233.126 24.354C233.668 24.5033 234.134 24.7133 234.526 24.984L234.176 25.81C233.756 25.53 233.308 25.3247 232.832 25.194C232.366 25.0633 231.913 24.998 231.474 24.998C230.886 24.998 230.401 25.0773 230.018 25.236C229.636 25.3947 229.351 25.6093 229.164 25.88C228.987 26.1413 228.898 26.44 228.898 26.776C228.898 27.1587 229.006 27.4667 229.22 27.7C229.444 27.9333 229.734 28.1153 230.088 28.246C230.452 28.3767 230.849 28.4933 231.278 28.596C231.708 28.6987 232.132 28.8107 232.552 28.932C232.982 29.0533 233.374 29.212 233.728 29.408C234.092 29.5947 234.382 29.8467 234.596 30.164C234.82 30.4813 234.932 30.8967 234.932 31.41C234.932 31.886 234.802 32.3293 234.54 32.74C234.279 33.1413 233.878 33.468 233.336 33.72C232.804 33.9627 232.118 34.084 231.278 34.084ZM240.218 34.07C239.592 34.07 239.046 33.9533 238.58 33.72C238.113 33.4867 237.749 33.1367 237.488 32.67C237.236 32.2033 237.11 31.62 237.11 30.92V26.65H238.104V30.808C238.104 31.592 238.295 32.1847 238.678 32.586C239.07 32.978 239.616 33.174 240.316 33.174C240.829 33.174 241.272 33.0713 241.646 32.866C242.028 32.6513 242.318 32.3433 242.514 31.942C242.719 31.5407 242.822 31.06 242.822 30.5V26.65H243.816V34H242.864V31.984L243.018 32.348C242.784 32.8893 242.42 33.314 241.926 33.622C241.44 33.9207 240.871 34.07 240.218 34.07ZM250.58 34.07C249.936 34.07 249.357 33.9253 248.844 33.636C248.33 33.3373 247.924 32.908 247.626 32.348C247.327 31.788 247.178 31.1113 247.178 30.318C247.178 29.5153 247.327 28.8387 247.626 28.288C247.934 27.728 248.344 27.3033 248.858 27.014C249.371 26.7247 249.945 26.58 250.58 26.58C251.28 26.58 251.905 26.7387 252.456 27.056C253.016 27.364 253.454 27.798 253.772 28.358C254.089 28.918 254.248 29.5713 254.248 30.318C254.248 31.0553 254.089 31.7087 253.772 32.278C253.454 32.838 253.016 33.2767 252.456 33.594C251.905 33.9113 251.28 34.07 250.58 34.07ZM246.786 34V23.612H247.78V28.82L247.64 30.304L247.738 31.788V34H246.786ZM250.51 33.188C251.032 33.188 251.499 33.0713 251.91 32.838C252.32 32.5953 252.647 32.2593 252.89 31.83C253.132 31.3913 253.254 30.8873 253.254 30.318C253.254 29.7393 253.132 29.2353 252.89 28.806C252.647 28.3767 252.32 28.0453 251.91 27.812C251.499 27.5693 251.032 27.448 250.51 27.448C249.987 27.448 249.516 27.5693 249.096 27.812C248.685 28.0453 248.358 28.3767 248.116 28.806C247.882 29.2353 247.766 29.7393 247.766 30.318C247.766 30.8873 247.882 31.3913 248.116 31.83C248.358 32.2593 248.685 32.5953 249.096 32.838C249.516 33.0713 249.987 33.188 250.51 33.188ZM258.448 34.07C257.841 34.07 257.267 33.986 256.726 33.818C256.185 33.6407 255.76 33.4213 255.452 33.16L255.9 32.376C256.199 32.6 256.581 32.796 257.048 32.964C257.515 33.1227 258.005 33.202 258.518 33.202C259.218 33.202 259.722 33.0947 260.03 32.88C260.338 32.656 260.492 32.362 260.492 31.998C260.492 31.7273 260.403 31.5173 260.226 31.368C260.058 31.2093 259.834 31.0927 259.554 31.018C259.274 30.934 258.961 30.864 258.616 30.808C258.271 30.752 257.925 30.6867 257.58 30.612C257.244 30.5373 256.936 30.43 256.656 30.29C256.376 30.1407 256.147 29.94 255.97 29.688C255.802 29.436 255.718 29.1 255.718 28.68C255.718 28.2787 255.83 27.9193 256.054 27.602C256.278 27.2847 256.605 27.0373 257.034 26.86C257.473 26.6733 258.005 26.58 258.63 26.58C259.106 26.58 259.582 26.6453 260.058 26.776C260.534 26.8973 260.926 27.0607 261.234 27.266L260.8 28.064C260.473 27.84 260.123 27.6813 259.75 27.588C259.377 27.4853 259.003 27.434 258.63 27.434C257.967 27.434 257.477 27.5507 257.16 27.784C256.852 28.008 256.698 28.2973 256.698 28.652C256.698 28.932 256.782 29.1513 256.95 29.31C257.127 29.4687 257.356 29.5947 257.636 29.688C257.925 29.772 258.238 29.842 258.574 29.898C258.919 29.954 259.26 30.024 259.596 30.108C259.941 30.1827 260.254 30.29 260.534 30.43C260.823 30.5607 261.052 30.752 261.22 31.004C261.397 31.2467 261.486 31.5687 261.486 31.97C261.486 32.3993 261.365 32.7727 261.122 33.09C260.889 33.398 260.543 33.6407 260.086 33.818C259.638 33.986 259.092 34.07 258.448 34.07ZM266.562 34.07C265.834 34.07 265.181 33.9113 264.602 33.594C264.033 33.2673 263.585 32.824 263.258 32.264C262.931 31.6947 262.768 31.046 262.768 30.318C262.768 29.5807 262.931 28.932 263.258 28.372C263.585 27.812 264.033 27.3733 264.602 27.056C265.181 26.7387 265.834 26.58 266.562 26.58C267.187 26.58 267.752 26.7013 268.256 26.944C268.76 27.1867 269.157 27.5507 269.446 28.036L268.704 28.54C268.452 28.1667 268.139 27.8913 267.766 27.714C267.393 27.5367 266.987 27.448 266.548 27.448C266.025 27.448 265.554 27.5693 265.134 27.812C264.714 28.0453 264.383 28.3767 264.14 28.806C263.897 29.2353 263.776 29.7393 263.776 30.318C263.776 30.8967 263.897 31.4007 264.14 31.83C264.383 32.2593 264.714 32.5953 265.134 32.838C265.554 33.0713 266.025 33.188 266.548 33.188C266.987 33.188 267.393 33.0993 267.766 32.922C268.139 32.7447 268.452 32.474 268.704 32.11L269.446 32.614C269.157 33.09 268.76 33.454 268.256 33.706C267.752 33.9487 267.187 34.07 266.562 34.07ZM271.599 34V26.65H272.551V28.652L272.453 28.302C272.658 27.742 273.003 27.3173 273.489 27.028C273.974 26.7293 274.576 26.58 275.295 26.58V27.546C275.257 27.546 275.22 27.546 275.183 27.546C275.145 27.5367 275.108 27.532 275.071 27.532C274.296 27.532 273.689 27.77 273.251 28.246C272.812 28.7127 272.593 29.38 272.593 30.248V34H271.599ZM277.308 34V26.65H278.302V34H277.308ZM277.812 25.026C277.607 25.026 277.434 24.956 277.294 24.816C277.154 24.676 277.084 24.508 277.084 24.312C277.084 24.116 277.154 23.9527 277.294 23.822C277.434 23.682 277.607 23.612 277.812 23.612C278.018 23.612 278.19 23.6773 278.33 23.808C278.47 23.9387 278.54 24.102 278.54 24.298C278.54 24.5033 278.47 24.676 278.33 24.816C278.2 24.956 278.027 25.026 277.812 25.026ZM285.062 34.07C284.418 34.07 283.84 33.9253 283.326 33.636C282.813 33.3373 282.407 32.908 282.108 32.348C281.81 31.788 281.66 31.1113 281.66 30.318C281.66 29.5153 281.81 28.8387 282.108 28.288C282.416 27.728 282.827 27.3033 283.34 27.014C283.854 26.7247 284.428 26.58 285.062 26.58C285.762 26.58 286.388 26.7387 286.938 27.056C287.498 27.364 287.937 27.798 288.254 28.358C288.572 28.918 288.73 29.5713 288.73 30.318C288.73 31.0553 288.572 31.7087 288.254 32.278C287.937 32.838 287.498 33.2767 286.938 33.594C286.388 33.9113 285.762 34.07 285.062 34.07ZM281.268 34V23.612H282.262V28.82L282.122 30.304L282.22 31.788V34H281.268ZM284.992 33.188C285.515 33.188 285.982 33.0713 286.392 32.838C286.803 32.5953 287.13 32.2593 287.372 31.83C287.615 31.3913 287.736 30.8873 287.736 30.318C287.736 29.7393 287.615 29.2353 287.372 28.806C287.13 28.3767 286.803 28.0453 286.392 27.812C285.982 27.5693 285.515 27.448 284.992 27.448C284.47 27.448 283.998 27.5693 283.578 27.812C283.168 28.0453 282.841 28.3767 282.598 28.806C282.365 29.2353 282.248 29.7393 282.248 30.318C282.248 30.8873 282.365 31.3913 282.598 31.83C282.841 32.2593 283.168 32.5953 283.578 32.838C283.998 33.0713 284.47 33.188 284.992 33.188ZM294.079 34.07C293.313 34.07 292.641 33.9113 292.063 33.594C291.484 33.2673 291.031 32.824 290.705 32.264C290.378 31.6947 290.215 31.046 290.215 30.318C290.215 29.59 290.369 28.946 290.677 28.386C290.994 27.826 291.423 27.3873 291.965 27.07C292.515 26.7433 293.131 26.58 293.813 26.58C294.503 26.58 295.115 26.7387 295.647 27.056C296.188 27.364 296.613 27.8027 296.921 28.372C297.229 28.932 297.383 29.5807 297.383 30.318C297.383 30.3647 297.378 30.416 297.369 30.472C297.369 30.5187 297.369 30.57 297.369 30.626H290.971V29.884H296.837L296.445 30.178C296.445 29.646 296.328 29.1747 296.095 28.764C295.871 28.344 295.563 28.0173 295.171 27.784C294.779 27.5507 294.326 27.434 293.813 27.434C293.309 27.434 292.856 27.5507 292.455 27.784C292.053 28.0173 291.741 28.344 291.517 28.764C291.293 29.184 291.181 29.6647 291.181 30.206V30.36C291.181 30.92 291.302 31.4147 291.545 31.844C291.797 32.264 292.142 32.5953 292.581 32.838C293.029 33.0713 293.537 33.188 294.107 33.188C294.555 33.188 294.97 33.1087 295.353 32.95C295.745 32.7913 296.081 32.5487 296.361 32.222L296.921 32.866C296.594 33.258 296.183 33.5567 295.689 33.762C295.203 33.9673 294.667 34.07 294.079 34.07Z" fill="white"/>
</g>
</g>
<defs>
<clipPath id="clip0_540_1123">
<rect width="321" height="58" fill="white"/>
</clipPath>
<clipPath id="clip1_540_1123">
<rect width="117" height="58" fill="white" transform="translate(204)"/>
</clipPath>
</defs>
</svg>
